<svg xmlns="http://www.w3.org/2000/svg" viewBox="0 0 100 100" fill="none"><path d="M50 49 Q49 72 50 95" stroke="#EAB13A" stroke-width="1.4" stroke-linecap="round"></path><g stroke="#EAB13A" stroke-width="0.95" stroke-linecap="round"><line x1="54.50" y1="45.00" x2="83.00" y2="45.00"></line><line x1="54.37" y1="46.08" x2="82.04" y2="52.90"></line><line x1="53.98" y1="47.09" x2="79.22" y2="60.34"></line><line x1="53.37" y1="47.98" x2="74.70" y2="66.88"></line><line x1="52.56" y1="48.70" x2="68.75" y2="72.16"></line><line x1="51.60" y1="49.21" x2="61.70" y2="75.86"></line><line x1="50.54" y1="49.47" x2="53.98" y2="77.76"></line><line x1="49.46" y1="49.47" x2="46.02" y2="77.76"></line><line x1="48.40" y1="49.21" x2="38.30" y2="75.86"></line><line x1="47.44" y1="48.70" x2="31.25" y2="72.16"></line><line x1="46.63" y1="47.98" x2="25.30" y2="66.88"></line><line x1="46.02" y1="47.09" x2="20.78" y2="60.34"></line><line x1="45.63" y1="46.08" x2="17.96" y2="52.90"></line><line x1="45.50" y1="45.00" x2="17.00" y2="45.00"></line><line x1="45.63" y1="43.92" x2="17.96" y2="37.10"></line><line x1="46.02" y1="42.91" x2="20.78" y2="29.66"></line><line x1="46.63" y1="42.02" x2="25.30" y2="23.12"></line><line x1="47.44" y1="41.30" x2="31.25" y2="17.84"></line><line x1="48.40" y1="40.79" x2="38.30" y2="14.14"></line><line x1="49.46" y1="40.53" x2="46.02" y2="12.24"></line><line x1="50.54" y1="40.53" x2="53.98" y2="12.24"></line><line x1="51.60" y1="40.79" x2="61.70" y2="14.14"></line><line x1="52.56" y1="41.30" x2="68.75" y2="17.84"></line><line x1="53.37" y1="42.02" x2="74.70" y2="23.12"></line><line x1="53.98" y1="42.91" x2="79.22" y2="29.66"></line><line x1="54.37" y1="43.92" x2="82.04" y2="37.10"></line></g><g stroke="#EFDCA6" stroke-width="0.7" stroke-linecap="round" opacity="0.85"><line x1="83.00" y1="45.00" x2="86.97" y2="43.63"></line><line x1="83.00" y1="45.00" x2="86.97" y2="46.37"></line><line x1="82.04" y1="52.90" x2="86.22" y2="52.52"></line><line x1="82.04" y1="52.90" x2="85.57" y2="55.18"></line><line x1="79.22" y1="60.34" x2="83.37" y2="60.97"></line><line x1="79.22" y1="60.34" x2="82.10" y2="63.39"></line><line x1="74.70" y1="66.88" x2="78.58" y2="68.49"></line><line x1="74.70" y1="66.88" x2="76.77" y2="70.54"></line><line x1="68.75" y1="72.16" x2="72.13" y2="74.65"></line><line x1="68.75" y1="72.16" x2="69.88" y2="76.20"></line><line x1="61.70" y1="75.86" x2="64.39" y2="79.08"></line><line x1="61.70" y1="75.86" x2="61.83" y2="80.05"></line><line x1="53.98" y1="77.76" x2="55.81" y2="81.54"></line><line x1="53.98" y1="77.76" x2="53.10" y2="81.87"></line><line x1="46.02" y1="77.76" x2="46.90" y2="81.87"></line><line x1="46.02" y1="77.76" x2="44.19" y2="81.54"></line><line x1="38.30" y1="75.86" x2="38.17" y2="80.05"></line><line x1="38.30" y1="75.86" x2="35.61" y2="79.08"></line><line x1="31.25" y1="72.16" x2="30.12" y2="76.20"></line><line x1="31.25" y1="72.16" x2="27.87" y2="74.65"></line><line x1="25.30" y1="66.88" x2="23.23" y2="70.54"></line><line x1="25.30" y1="66.88" x2="21.42" y2="68.49"></line><line x1="20.78" y1="60.34" x2="17.90" y2="63.39"></line><line x1="20.78" y1="60.34" x2="16.63" y2="60.97"></line><line x1="17.96" y1="52.90" x2="14.43" y2="55.18"></line><line x1="17.96" y1="52.90" x2="13.78" y2="52.52"></line><line x1="17.00" y1="45.00" x2="13.03" y2="46.37"></line><line x1="17.00" y1="45.00" x2="13.03" y2="43.63"></line><line x1="17.96" y1="37.10" x2="13.78" y2="37.48"></line><line x1="17.96" y1="37.10" x2="14.43" y2="34.82"></line><line x1="20.78" y1="29.66" x2="16.63" y2="29.03"></line><line x1="20.78" y1="29.66" x2="17.90" y2="26.61"></line><line x1="25.30" y1="23.12" x2="21.42" y2="21.51"></line><line x1="25.30" y1="23.12" x2="23.23" y2="19.46"></line><line x1="31.25" y1="17.84" x2="27.87" y2="15.35"></line><line x1="31.25" y1="17.84" x2="30.12" y2="13.80"></line><line x1="38.30" y1="14.14" x2="35.61" y2="10.92"></line><line x1="38.30" y1="14.14" x2="38.17" y2="9.95"></line><line x1="46.02" y1="12.24" x2="44.19" y2="8.46"></line><line x1="46.02" y1="12.24" x2="46.90" y2="8.13"></line><line x1="53.98" y1="12.24" x2="53.10" y2="8.13"></line><line x1="53.98" y1="12.24" x2="55.81" y2="8.46"></line><line x1="61.70" y1="14.14" x2="61.83" y2="9.95"></line><line x1="61.70" y1="14.14" x2="64.39" y2="10.92"></line><line x1="68.75" y1="17.84" x2="69.88" y2="13.80"></line><line x1="68.75" y1="17.84" x2="72.13" y2="15.35"></line><line x1="74.70" y1="23.12" x2="76.77" y2="19.46"></line><line x1="74.70" y1="23.12" x2="78.58" y2="21.51"></line><line x1="79.22" y1="29.66" x2="82.10" y2="26.61"></line><line x1="79.22" y1="29.66" x2="83.37" y2="29.03"></line><line x1="82.04" y1="37.10" x2="85.57" y2="34.82"></line><line x1="82.04" y1="37.10" x2="86.22" y2="37.48"></line></g><g fill="#EFDCA6"><circle cx="83.00" cy="45.00" r="1.5"></circle><circle cx="82.04" cy="52.90" r="1.5"></circle><circle cx="79.22" cy="60.34" r="1.5"></circle><circle cx="74.70" cy="66.88" r="1.5"></circle><circle cx="68.75" cy="72.16" r="1.5"></circle><circle cx="61.70" cy="75.86" r="1.5"></circle><circle cx="53.98" cy="77.76" r="1.5"></circle><circle cx="46.02" cy="77.76" r="1.5"></circle><circle cx="38.30" cy="75.86" r="1.5"></circle><circle cx="31.25" cy="72.16" r="1.5"></circle><circle cx="25.30" cy="66.88" r="1.5"></circle><circle cx="20.78" cy="60.34" r="1.5"></circle><circle cx="17.96" cy="52.90" r="1.5"></circle><circle cx="17.00" cy="45.00" r="1.5"></circle><circle cx="17.96" cy="37.10" r="1.5"></circle><circle cx="20.78" cy="29.66" r="1.5"></circle><circle cx="25.30" cy="23.12" r="1.5"></circle><circle cx="31.25" cy="17.84" r="1.5"></circle><circle cx="38.30" cy="14.14" r="1.5"></circle><circle cx="46.02" cy="12.24" r="1.5"></circle><circle cx="53.98" cy="12.24" r="1.5"></circle><circle cx="61.70" cy="14.14" r="1.5"></circle><circle cx="68.75" cy="17.84" r="1.5"></circle><circle cx="74.70" cy="23.12" r="1.5"></circle><circle cx="79.22" cy="29.66" r="1.5"></circle><circle cx="82.04" cy="37.10" r="1.5"></circle></g><circle cx="50" cy="45" r="3.1" fill="#EAB13A"></circle></svg>